<svg width="56" height="40" viewBox="0 0 56 40" fill="none" xmlns="http://www.w3.org/2000/svg">
<path fill-rule="evenodd" clip-rule="evenodd" d="M39.8221 0.548663L29.2379 11.1328C28.5064 11.8644 28.5064 13.0473 29.2379 13.7711L30.9968 15.5299C31.7283 16.2615 32.9113 16.2615 33.635 15.5299L41.1373 8.02761L48.6396 15.5299C49.3712 16.2615 50.5541 16.2615 51.2779 15.5299L53.0367 13.7711C53.7682 13.0395 53.7682 11.8566 53.0367 11.1328L42.4525 0.548663C41.7366 -0.182888 40.5536 -0.182888 39.8221 0.548663ZM11.7056 7.46896L35.7732 0.361584L23.9571 12.0007C23.23 12.7168 22.7227 13.5719 22.4358 14.4818L14.9423 16.6772V34.8632C14.9423 37.6135 11.5959 39.844 7.47116 39.844C3.34646 39.844 0 37.6135 0 34.8632C0 32.1129 3.34646 29.8824 7.47116 29.8824C8.31031 29.8872 9.14606 29.9896 9.96155 30.1875V9.84339C9.96186 9.31356 10.1312 8.79764 10.4448 8.37062C10.7585 7.9436 11.2001 7.62774 11.7056 7.46896ZM34.8654 20.7866V18.2088L39.8462 13.3027V17.1524C38.7534 17.4209 37.7164 17.9783 36.8565 18.8253L34.8654 20.7866ZM30.5327 25.0544C27.2983 25.6016 24.9039 27.556 24.9039 29.8824C24.9039 31.0152 25.4715 32.0598 26.4274 32.8966C26.1138 30.9057 26.7323 28.7979 28.2776 27.2756L30.5327 25.0544ZM30.7602 29.656L41.3444 19.0719C42.0759 18.3403 43.2588 18.3403 43.9748 19.0719L54.559 29.656C55.2905 30.3798 55.2905 31.5627 54.559 32.2943L52.8001 34.0531C52.0764 34.7847 50.8934 34.7847 50.1619 34.0531L42.6596 26.5508L35.1573 34.0531C34.4335 34.7847 33.2506 34.7847 32.519 34.0531L30.7602 32.2943C30.0287 31.5705 30.0287 30.3876 30.7602 29.656Z" fill="white"/>
</svg>
